<svg xmlns="http://www.w3.org/2000/svg" xmlns:xlink="http://www.w3.org/1999/xlink" width="389.703" height="194.19" viewBox="0 0 389.703 194.19">
  <defs>
    <filter id="Rectangle_516" x="110.703" y="0" width="279" height="193" filterUnits="userSpaceOnUse">
      <feOffset dy="3" input="SourceAlpha"/>
      <feGaussianBlur stdDeviation="8" result="blur"/>
      <feFlood flood-opacity="0.161"/>
      <feComposite operator="in" in2="blur"/>
      <feComposite in="SourceGraphic"/>
    </filter>
    <filter id="Path_4845" x="0" y="1.189" width="158.703" height="193" filterUnits="userSpaceOnUse">
      <feOffset dy="3" input="SourceAlpha"/>
      <feGaussianBlur stdDeviation="8" result="blur-2"/>
      <feFlood flood-opacity="0.161"/>
      <feComposite operator="in" in2="blur-2"/>
      <feComposite in="SourceGraphic"/>
    </filter>
  </defs>
  <g id="Group_4067" data-name="Group 4067" transform="translate(-5335.649 -495)">
    <g id="Group_2072" data-name="Group 2072" transform="translate(-3163.648 -5204)">
      <g transform="matrix(1, 0, 0, 1, 8499.3, 5699)" filter="url(#Rectangle_516)">
        <rect id="Rectangle_516-2" data-name="Rectangle 516" width="231" height="145" rx="16" transform="translate(134.7 21)" fill="#fff"/>
      </g>
      <g transform="matrix(1, 0, 0, 1, 8499.3, 5699)" filter="url(#Path_4845)">
        <path id="Path_4845-2" data-name="Path 4845" d="M171.913,183.6c0-1.31,1.822-2.372,4.07-2.372V166.672c-2.247,0-4.07-1.062-4.07-2.372s1.822-2.372,4.07-2.372V147.372c-2.247,0-4.07-1.062-4.07-2.372s1.822-2.373,4.07-2.373V128.071c-2.247,0-4.07-1.062-4.07-2.372s1.822-2.373,4.07-2.373V108.77c-2.247,0-4.07-1.062-4.07-2.373s1.822-2.372,4.07-2.372V89.469c-2.247,0-4.07-1.063-4.07-2.373s1.822-2.372,4.07-2.372V72.835c-9.462,0-17.132-4.471-17.132-9.986H89.032c-3.226,0-5.966,1.285-6.843,3.094-2.518,5.2-8.752,9.466-16.909,11.817V192.937c8.158,2.351,14.39,6.621,16.909,11.817.877,1.81,3.617,3.1,6.843,3.1H158.85c0-5.516,7.67-9.987,17.132-9.987V185.974C173.735,185.974,171.913,184.911,171.913,183.6Z" transform="translate(-41.28 -40.66)" fill="#fa540e"/>
      </g>
    </g>
  </g>
</svg>
